<?xml version="1.0" encoding="utf-8"?>
<!-- Generator: Adobe Illustrator 19.2.1, SVG Export Plug-In . SVG Version: 6.00 Build 0)  -->
<!DOCTYPE svg PUBLIC "-//W3C//DTD SVG 1.1//EN" "http://www.w3.org/Graphics/SVG/1.1/DTD/svg11.dtd">
<svg version="1.1" id="Layer_1" xmlns="http://www.w3.org/2000/svg" xmlns:xlink="http://www.w3.org/1999/xlink" x="0px" y="0px"
	 viewBox="0 0 28.4 16.1" style="enable-background:new 0 0 28.4 16.1;" xml:space="preserve">
<style type="text/css">
	.st0{fill:#FFFFFF;}
</style>
<path class="st0" d="M24.5,14H3.7c-0.5,0-0.9-0.1-1-0.6L1.4,2.9C1.4,2.5,1.6,2.1,1.9,2C2.3,1.8,2.7,1.9,3,2.1l6.1,5.4l4.7-4.5
	c0.2-0.2,0.4-0.3,0.7-0.3c0.3,0,0.5,0.1,0.7,0.3l4.3,4.6l5.9-5.6c0.3-0.3,0.8-0.4,1.1-0.2c0.4,0.2,0.6,0.6,0.5,1l-1.5,10.5
	C25.4,13.9,25,14,24.5,14z M4.6,12h19.1l1-6.8l-4.6,4.5c-0.2,0.2-0.4,0.4-0.7,0.4c-0.3,0-0.5-0.1-0.7-0.3l-4.3-4.6L9.8,9.6
	C9.4,10,8.8,10,8.5,9.6L3.7,5.1L4.6,12z"/>
</svg>
